<svg width="122" height="35" viewBox="0 0 122 35" fill="none" xmlns="http://www.w3.org/2000/svg">
<mask id="mask0_281_283" style="mask-type:luminance" maskUnits="userSpaceOnUse" x="0" y="0" width="33" height="30">
<path d="M0.861328 0.713379H32.554V29.1978H0.861328V0.713379Z" fill="white"/>
</mask>
<g mask="url(#mask0_281_283)">
<mask id="mask1_281_283" style="mask-type:luminance" maskUnits="userSpaceOnUse" x="0" y="0" width="33" height="30">
<path d="M30.4342 29.1665H2.96029C1.80404 29.1665 0.861328 28.2238 0.861328 27.0675V2.81234C0.861328 1.65609 1.80404 0.713379 2.96029 0.713379H30.4342C31.5905 0.713379 32.5332 1.65609 32.5332 2.81234V27.0675C32.5332 28.2238 31.5905 29.1665 30.4342 29.1665Z" fill="white"/>
</mask>
<g mask="url(#mask1_281_283)">
<path d="M0.861328 0.713379H32.554V29.1978H0.861328V0.713379Z" fill="#F1E9E4"/>
</g>
</g>
<mask id="mask2_281_283" style="mask-type:luminance" maskUnits="userSpaceOnUse" x="0" y="6" width="33" height="29">
<path d="M0.861328 6.34912H32.554V34.8283H0.861328V6.34912Z" fill="white"/>
</mask>
<g mask="url(#mask2_281_283)">
<mask id="mask3_281_283" style="mask-type:luminance" maskUnits="userSpaceOnUse" x="0" y="6" width="33" height="29">
<path d="M30.4342 34.797H2.96029C1.80404 34.797 0.861328 33.8543 0.861328 32.6981V8.44287C0.861328 7.28662 1.80404 6.34912 2.96029 6.34912H30.4342C31.5905 6.34912 32.5332 7.28662 32.5332 8.44287V32.6981C32.5332 33.8543 31.5905 34.797 30.4342 34.797Z" fill="white"/>
</mask>
<g mask="url(#mask3_281_283)">
<path d="M0.861328 6.34912H32.554V34.8283H0.861328V6.34912Z" fill="#FAF8F7"/>
</g>
</g>
<mask id="mask4_281_283" style="mask-type:luminance" maskUnits="userSpaceOnUse" x="8" y="8" width="4" height="5">
<path d="M8.38184 8.90088H11.6475V12.1717H8.38184V8.90088Z" fill="white"/>
</mask>
<g mask="url(#mask4_281_283)">
<mask id="mask5_281_283" style="mask-type:luminance" maskUnits="userSpaceOnUse" x="8" y="8" width="4" height="5">
<path d="M10.012 8.90088C9.111 8.90088 8.38184 9.63525 8.38184 10.5363C8.38184 11.4373 9.111 12.1717 10.012 12.1717C10.9183 12.1717 11.6475 11.4373 11.6475 10.5363C11.6475 9.63525 10.9183 8.90088 10.012 8.90088Z" fill="white"/>
</mask>
<g mask="url(#mask5_281_283)">
<path d="M8.38184 8.90088H11.6475V12.1717H8.38184V8.90088Z" fill="#FF8537"/>
</g>
</g>
<mask id="mask6_281_283" style="mask-type:luminance" maskUnits="userSpaceOnUse" x="21" y="8" width="5" height="5">
<path d="M21.7471 8.90088H25.0127V12.1717H21.7471V8.90088Z" fill="white"/>
</mask>
<g mask="url(#mask6_281_283)">
<mask id="mask7_281_283" style="mask-type:luminance" maskUnits="userSpaceOnUse" x="21" y="8" width="5" height="5">
<path d="M23.3825 8.90088C22.4762 8.90088 21.7471 9.63525 21.7471 10.5363C21.7471 11.4373 22.4762 12.1717 23.3825 12.1717C24.2835 12.1717 25.0127 11.4373 25.0127 10.5363C25.0127 9.63525 24.2835 8.90088 23.3825 8.90088Z" fill="white"/>
</mask>
<g mask="url(#mask7_281_283)">
<path d="M21.7471 8.90088H25.0127V12.1717H21.7471V8.90088Z" fill="#FF8537"/>
</g>
</g>
<mask id="mask8_281_283" style="mask-type:luminance" maskUnits="userSpaceOnUse" x="8" y="14" width="17" height="9">
<path d="M8.66309 14.5312H24.5433V22.4687H8.66309V14.5312Z" fill="white"/>
</mask>
<g mask="url(#mask8_281_283)">
<path d="M16.6056 22.4687C15.6941 22.4687 14.8087 22.3177 13.9545 22.0104C13.0952 21.7083 12.3139 21.2708 11.6056 20.6979C10.8972 20.125 10.3087 19.4531 9.82954 18.6771C9.35558 17.901 9.02224 17.0677 8.83474 16.1771C8.79308 15.974 8.79308 15.776 8.84516 15.5729C8.89204 15.375 8.98579 15.1927 9.11599 15.0313C9.2462 14.875 9.40245 14.75 9.58995 14.6615C9.77745 14.5729 9.97537 14.5312 10.1785 14.5312C10.5066 14.5312 10.7931 14.6354 11.0483 14.8385C11.2983 15.0469 11.4597 15.3073 11.5222 15.625C11.6472 16.2083 11.866 16.75 12.1785 17.2552C12.491 17.7604 12.8816 18.1979 13.34 18.5729C13.8035 18.9427 14.3139 19.2292 14.8764 19.4271C15.4337 19.625 16.0118 19.724 16.6056 19.724C17.1993 19.724 17.7722 19.625 18.3347 19.4271C18.892 19.2292 19.4025 18.9427 19.866 18.5729C20.3243 18.1979 20.715 17.7604 21.0275 17.2552C21.3347 16.75 21.5535 16.2083 21.6837 15.625C21.7462 15.3073 21.9077 15.0469 22.1577 14.8385C22.4129 14.6354 22.6993 14.5312 23.0222 14.5312C23.2306 14.5312 23.4285 14.5729 23.616 14.6615C23.8035 14.75 23.9597 14.875 24.09 15.0313C24.2202 15.1927 24.3087 15.375 24.3608 15.5729C24.4077 15.776 24.4129 15.974 24.3712 16.1771C24.1837 17.0677 23.8504 17.901 23.3712 18.6771C22.8972 19.4531 22.3087 20.125 21.6004 20.6979C20.892 21.2708 20.1108 21.7083 19.2566 22.0104C18.3972 22.3177 17.5118 22.4687 16.6056 22.4687Z" fill="#FF8537"/>
</g>
<path d="M45.1689 9.48454L42.6064 9.47412V10.8335H43.195V16.495H42.6064V17.87H45.5335V16.495H44.945V11.6825L47.195 15.2397H47.721L49.9814 11.6825V16.495H49.3669V17.87H52.3096V16.495H51.7106V10.8335H52.3096V9.48454H49.7471L47.4606 13.2137L45.1689 9.48454Z" fill="#FAF8F7"/>
<path d="M61.736 9.48438L58.7933 16.4948H58.1787V17.8698H61.3037V16.4948H60.6214L61.1318 15.1094H64.1162L64.6266 16.4948H63.96V17.8698H67.085V16.4948H66.4548L63.512 9.48438H61.736ZM61.5798 13.8958L62.6266 11.0417L63.6735 13.8958H61.5798Z" fill="#FAF8F7"/>
<path d="M75.8187 17.8698V16.4948H75.2926V14.1406H76.1468L78.3708 17.8698H80.1468V16.5104H79.4281L77.9124 14.026C78.8812 13.75 79.5479 12.9792 79.5479 11.8125C79.5479 10.3333 78.4489 9.48438 77.0583 9.48438H72.9541V10.8333H73.5426V16.4948H72.9541V17.8698H75.8187ZM75.2926 13.1458V10.8333H76.5739C77.3343 10.8333 77.8083 11.3281 77.8083 11.9948C77.8083 12.6875 77.3083 13.1458 76.5739 13.1458H75.2926Z" fill="#FAF8F7"/>
<path d="M94.1624 16.443L93.5374 15.3597C93.5374 15.3597 92.5947 16.693 90.8031 16.693C88.9072 16.693 87.9906 15.3337 87.9906 13.6722C87.9906 12.0107 88.8395 10.6618 90.6572 10.6618C91.4437 10.6618 92.0322 10.8962 92.4489 11.1618L92.6364 12.2451H93.9281V10.8962C93.9281 10.8962 92.9489 9.29199 90.5166 9.29199C87.626 9.29199 86.251 11.2503 86.251 13.6722C86.251 16.0889 87.626 18.042 90.5166 18.042C93.1312 18.042 94.1624 16.443 94.1624 16.443Z" fill="#FAF8F7"/>
<path d="M105.738 9.47412V10.8335H106.337V12.9897H102.504V10.8335L103.092 10.8439V9.48454L100.165 9.47412V10.8335H100.754V16.495H100.165V17.87H103.092V16.495H102.504V14.3491H106.337V16.495H105.738V17.87H108.665V16.495H108.076V10.8335L108.665 10.8439V9.48454L105.738 9.47412Z" fill="#FAF8F7"/>
<path d="M114.679 9.48438V10.8333H115.267V16.4948H114.679V17.8698H121.272V15.8438H120.054L119.976 16.4948H117.017V14.349H119.465V12.9896H117.017V10.8333H119.976L120.054 11.5H121.272V9.48438H114.679Z" fill="#FAF8F7"/>
<path d="M64.0355 25.8107V25.1961C64.0355 25.1961 63.6657 24.5659 62.7126 24.5659C61.9521 24.5659 61.4834 24.9826 61.4834 25.6284C61.4834 26.0138 61.6709 26.2743 62.1032 26.4826L63.1032 26.9618C63.249 27.0347 63.2855 27.1076 63.2855 27.1961C63.2855 27.3315 63.1396 27.4305 62.8844 27.4305C62.4521 27.4305 62.2178 27.2326 62.1084 27.092L62.0824 26.8315H61.4834V27.4357C61.4834 27.4357 61.8636 28.0659 62.8636 28.0659C63.6865 28.0659 64.2178 27.6649 64.2178 27.019C64.2178 26.6545 64.0407 26.3732 63.6553 26.1857L62.6032 25.6857C62.473 25.6128 62.4209 25.5399 62.4209 25.4461C62.4209 25.2847 62.5459 25.2065 62.7334 25.2065C63.0355 25.2065 63.2594 25.3368 63.4053 25.4618L63.4365 25.8107H64.0355Z" fill="#FAF8F7"/>
<path d="M68.6891 24.6387V25.3678H68.9235V25.9512H67.6839V25.3678H67.9183V24.6439L66.5068 24.6387V25.3678H66.7412V27.2689H66.5068V27.998H67.9183V27.2689H67.6839V26.6803H68.9235V27.2689H68.6891V27.998H70.1006V27.2689H69.8662V25.3678H70.1006V24.6439L68.6891 24.6387Z" fill="#FAF8F7"/>
<path d="M74.2907 25.2951C74.9261 25.2951 75.1501 25.7534 75.1501 26.3159C75.1501 26.8836 74.9261 27.342 74.2907 27.342C73.6449 27.342 73.4209 26.8836 73.4209 26.3159C73.4209 25.7534 73.6449 25.2951 74.2907 25.2951ZM74.2907 24.5659C73.0719 24.5659 72.4834 25.3524 72.4834 26.3159C72.4834 27.2847 73.0719 28.0659 74.2907 28.0659C75.5094 28.0659 76.0876 27.2847 76.0876 26.3159C76.0876 25.3524 75.5094 24.5659 74.2907 24.5659Z" fill="#FAF8F7"/>
<path d="M79.8395 27.9982V27.269H79.6468V26.8524H80.5218C81.0895 26.8524 81.5426 26.4409 81.5426 25.743C81.5426 25.0451 81.0895 24.644 80.5218 24.644H78.4697V25.368H78.7041V27.269H78.4697V27.9982H79.8395ZM79.6468 26.1284V25.368H80.2458C80.4645 25.368 80.5999 25.5295 80.5999 25.743C80.5999 25.9618 80.4541 26.1284 80.2458 26.1284H79.6468Z" fill="#FAF8F7"/>
<path d="M85.1774 27.9982V27.269H84.9847V26.8524H85.8597C86.4274 26.8524 86.8805 26.4409 86.8805 25.743C86.8805 25.0451 86.4274 24.644 85.8597 24.644H83.8076V25.368H84.042V27.269H83.8076V27.9982H85.1774ZM84.9847 26.1284V25.368H85.5837C85.8024 25.368 85.9378 25.5295 85.9378 25.743C85.9378 25.9618 85.792 26.1284 85.5837 26.1284H84.9847Z" fill="#FAF8F7"/>
<path d="M89.1455 24.6387V25.3678H89.3799V27.2689H89.1455V27.998H90.557V27.2689H90.3226V25.3678H90.557V24.6439L89.1455 24.6387Z" fill="#FAF8F7"/>
<path d="M95.2682 26.4668L93.8151 24.6439L92.8516 24.6387V25.3678H93.0859V27.2689H92.8516V27.998H94.263V27.2689H94.0286V26.1699L95.4818 27.998H96.2109V25.3678H96.4453V24.6439L95.0339 24.6387V25.3678H95.2682V26.4668Z" fill="#FAF8F7"/>
<path d="M102.098 27.394V26.144H100.582V26.8263H101.155V27.2586C101.03 27.3107 100.889 27.342 100.717 27.342C100.072 27.342 99.7695 26.8836 99.7695 26.3159C99.7695 25.7534 100.077 25.2951 100.723 25.2951C100.957 25.2951 101.15 25.3472 101.301 25.4201L101.415 25.9045H102.098V25.243C102.098 25.243 101.676 24.5659 100.639 24.5659C99.4154 24.5659 98.832 25.3524 98.832 26.3159C98.832 27.2847 99.4154 28.0659 100.639 28.0659C101.681 28.0659 102.098 27.394 102.098 27.394Z" fill="#FAF8F7"/>
</svg>
