<svg width="79" height="50" viewBox="0 0 79 50" fill="none" xmlns="http://www.w3.org/2000/svg">
<mask id="mask0_234_602" style="mask-type:luminance" maskUnits="userSpaceOnUse" x="25" y="0" width="29" height="26">
<path d="M25.504 0H53.3738V25.0443H25.504V0Z" fill="white"/>
</mask>
<g mask="url(#mask0_234_602)">
<mask id="mask1_234_602" style="mask-type:luminance" maskUnits="userSpaceOnUse" x="25" y="0" width="29" height="26">
<path d="M51.5103 25.0173H27.3496C26.3337 25.0173 25.504 24.1889 25.504 23.1717V1.84557C25.504 0.828388 26.3337 0 27.3496 0H51.5103C52.5262 0 53.3558 0.828388 53.3558 1.84557V23.1717C53.3558 24.1889 52.5262 25.0173 51.5103 25.0173Z" fill="white"/>
</mask>
<g mask="url(#mask1_234_602)">
<path d="M25.504 0H53.3738V25.0443H25.504V0Z" fill="#F1E9E4"/>
</g>
</g>
<mask id="mask2_234_602" style="mask-type:luminance" maskUnits="userSpaceOnUse" x="25" y="4" width="29" height="26">
<path d="M25.504 4.95239H53.3738V29.9967H25.504V4.95239Z" fill="white"/>
</mask>
<g mask="url(#mask2_234_602)">
<mask id="mask3_234_602" style="mask-type:luminance" maskUnits="userSpaceOnUse" x="25" y="4" width="29" height="26">
<path d="M51.5103 29.9697H27.3496C26.3337 29.9697 25.504 29.1413 25.504 28.1241V6.79796C25.504 5.78078 26.3337 4.95239 27.3496 4.95239H51.5103C52.5262 4.95239 53.3558 5.78078 53.3558 6.79796V28.1241C53.3558 29.1413 52.5262 29.9697 51.5103 29.9697Z" fill="white"/>
</mask>
<g mask="url(#mask3_234_602)">
<path d="M25.504 4.95239H53.3738V29.9967H25.504V4.95239Z" fill="#FF8537"/>
</g>
</g>
<mask id="mask4_234_602" style="mask-type:luminance" maskUnits="userSpaceOnUse" x="32" y="7" width="3" height="4">
<path d="M32.1183 7.20117H34.99V10.0729H32.1183V7.20117Z" fill="white"/>
</mask>
<g mask="url(#mask4_234_602)">
<mask id="mask5_234_602" style="mask-type:luminance" maskUnits="userSpaceOnUse" x="32" y="7" width="3" height="4">
<path d="M33.5542 7.20117C32.7604 7.20117 32.1183 7.84333 32.1183 8.63704C32.1183 9.42947 32.7604 10.0729 33.5542 10.0729C34.3466 10.0729 34.99 9.42947 34.99 8.63704C34.99 7.84333 34.3466 7.20117 33.5542 7.20117Z" fill="white"/>
</mask>
<g mask="url(#mask5_234_602)">
<path d="M32.1183 7.20117H34.99V10.0729H32.1183V7.20117Z" fill="white"/>
</g>
</g>
<mask id="mask6_234_602" style="mask-type:luminance" maskUnits="userSpaceOnUse" x="43" y="7" width="4" height="4">
<path d="M43.8699 7.20117H46.7416V10.0729H43.8699V7.20117Z" fill="white"/>
</mask>
<g mask="url(#mask6_234_602)">
<mask id="mask7_234_602" style="mask-type:luminance" maskUnits="userSpaceOnUse" x="43" y="7" width="4" height="4">
<path d="M45.3057 7.20117C44.5133 7.20117 43.8699 7.84333 43.8699 8.63704C43.8699 9.42947 44.5133 10.0729 45.3057 10.0729C46.0995 10.0729 46.7416 9.42947 46.7416 8.63704C46.7416 7.84333 46.0995 7.20117 45.3057 7.20117Z" fill="white"/>
</mask>
<g mask="url(#mask7_234_602)">
<path d="M43.8699 7.20117H46.7416V10.0729H43.8699V7.20117Z" fill="white"/>
</g>
</g>
<mask id="mask8_234_602" style="mask-type:luminance" maskUnits="userSpaceOnUse" x="32" y="12" width="15" height="8">
<path d="M32.3649 12.1471H46.4205V19.2982H32.3649V12.1471Z" fill="white"/>
</mask>
<g mask="url(#mask8_234_602)">
<path d="M39.3927 19.2982C38.9933 19.2982 38.5977 19.2635 38.2034 19.1942C37.8091 19.1248 37.4251 19.0221 37.0475 18.8859C36.6712 18.7498 36.309 18.5828 35.961 18.3838C35.6116 18.1847 35.2828 17.9574 34.972 17.7018C34.6612 17.4462 34.3748 17.1649 34.1103 16.8593C33.847 16.5536 33.6107 16.2274 33.4026 15.8806C33.1933 15.5351 33.0147 15.173 32.8658 14.7954C32.7181 14.4178 32.6012 14.0299 32.5177 13.6318C32.4997 13.5419 32.492 13.4507 32.4933 13.3595C32.4946 13.267 32.5061 13.1771 32.528 13.0872C32.5498 12.9986 32.5806 12.9126 32.6204 12.8304C32.6615 12.7482 32.7104 12.6724 32.7669 12.6005C32.8247 12.5298 32.8889 12.4656 32.9595 12.4091C33.0301 12.3526 33.1072 12.3051 33.1881 12.2665C33.2703 12.2267 33.3551 12.1972 33.4424 12.1766C33.531 12.1574 33.6197 12.1471 33.7108 12.1471C33.8495 12.1484 33.9857 12.1728 34.1167 12.2203C34.249 12.2691 34.3684 12.3372 34.4763 12.4284C34.5842 12.5183 34.6754 12.6236 34.7473 12.7456C34.8192 12.8663 34.8706 12.9973 34.8988 13.136C34.9541 13.3955 35.0298 13.6485 35.1274 13.8938C35.2251 14.1404 35.3432 14.3767 35.4794 14.6027C35.6168 14.8275 35.7709 15.0407 35.9443 15.2397C36.1164 15.4388 36.3039 15.6212 36.5068 15.7881C36.7097 15.9538 36.9255 16.1015 37.1528 16.2312C37.3801 16.361 37.6165 16.4701 37.8631 16.5575C38.1084 16.6461 38.3601 16.7129 38.6169 16.7578C38.8738 16.8028 39.132 16.8259 39.3927 16.8259C39.6534 16.8259 39.9128 16.8028 40.1697 16.7578C40.4266 16.7129 40.677 16.6461 40.9236 16.5575C41.1689 16.4688 41.4052 16.3597 41.6325 16.2312C41.8599 16.1015 42.0756 15.9538 42.2786 15.7869C42.4815 15.6199 42.669 15.4375 42.8411 15.2385C43.0132 15.0394 43.1686 14.8275 43.3047 14.6014C43.4421 14.3754 43.559 14.1404 43.6566 13.8938C43.7542 13.6485 43.83 13.3955 43.8865 13.136C43.9148 12.9973 43.9649 12.8663 44.0368 12.7456C44.1087 12.6236 44.1999 12.5183 44.3078 12.4284C44.4157 12.3372 44.5351 12.2691 44.6674 12.2203C44.7984 12.1728 44.9345 12.1484 45.0732 12.1471C45.1644 12.1471 45.253 12.1574 45.3417 12.1766C45.429 12.1972 45.5138 12.2267 45.596 12.2665C45.6769 12.3051 45.7539 12.3526 45.8246 12.4091C45.8952 12.4656 45.9594 12.5298 46.0172 12.6005C46.0737 12.6724 46.1225 12.7482 46.1636 12.8304C46.2034 12.9126 46.2343 12.9986 46.2561 13.0872C46.2779 13.1771 46.2895 13.267 46.2908 13.3595C46.2933 13.4507 46.2844 13.5419 46.2664 13.6318C46.1829 14.0299 46.0673 14.4178 45.9183 14.7954C45.7706 15.1717 45.5921 15.5339 45.3828 15.8806C45.1747 16.2274 44.9384 16.5536 44.6751 16.8593C44.4105 17.1649 44.1241 17.4462 43.8133 17.7018C43.5038 17.9574 43.1737 18.1847 42.8257 18.3838C42.4776 18.5828 42.1142 18.7498 41.7379 18.8859C41.3615 19.0221 40.9762 19.1248 40.5832 19.1942C40.189 19.2635 39.7934 19.2982 39.3927 19.2982Z" fill="white"/>
</g>
<path d="M2.25527 34.7146L0 34.7043V35.9H0.517582V40.8819H0V42.0905H2.57763V40.8819H2.05877V36.6488L4.03791 39.7774H4.49898L6.48968 36.6488V40.8819H5.9477V42.0905H8.53689V40.8819H8.00775V35.9H8.53689V34.7146H6.28162L4.2678 37.9948L2.25527 34.7146Z" fill="black"/>
<path d="M18.789 34.7146L16.1998 40.8819H15.6591V42.0905H18.4088V40.8819H17.8103L18.2598 39.6631H20.8824L21.3319 40.8819H20.745V42.0905H23.4947V40.8819H22.9424L20.3533 34.7146H18.789ZM18.6502 38.5933L19.5711 36.085L20.492 38.5933H18.6502Z" fill="black"/>
<path d="M33.1373 42.0905V40.8819H32.6762V38.8116H33.425L35.381 42.0905H36.9453V40.8935H36.3121L34.9777 38.7076C35.8292 38.4661 36.4161 37.7867 36.4161 36.7631C36.4161 35.4634 35.4491 34.7146 34.2302 34.7146H30.6174V35.9H31.135V40.8819H30.6174V42.0905H33.1373ZM32.6762 37.937V35.9H33.8038C34.4717 35.9 34.8852 36.338 34.8852 36.9249C34.8852 37.5337 34.4486 37.937 33.8038 37.937H32.6762Z" fill="black"/>
<path d="M51.2358 40.8357L50.6835 39.8814C50.6835 39.8814 49.8552 41.0553 48.2793 41.0553C46.611 41.0553 45.8057 39.8583 45.8057 38.3967C45.8057 36.9352 46.5532 35.751 48.1521 35.751C48.8431 35.751 49.3607 35.9578 49.728 36.1877L49.8898 37.1432H51.029V35.9578C51.029 35.9578 50.166 34.5425 48.0263 34.5425C45.4833 34.5425 44.2748 36.2686 44.2748 38.3967C44.2748 40.5261 45.4833 42.2394 48.0263 42.2394C50.3265 42.2394 51.2358 40.8357 51.2358 40.8357Z" fill="black"/>
<path d="M63.3746 34.7043V35.9H63.9037V37.7983H60.5324V35.9L61.0513 35.9116V34.7146L58.4736 34.7043V35.9H58.9912V40.8819H58.4736V42.0905H61.0513V40.8819H60.5324V38.9953H63.9037V40.8819H63.3746V42.0905H65.9522V40.8819H65.4347V35.9L65.9522 35.9116V34.7146L63.3746 34.7043Z" fill="black"/>
<path d="M73.2013 34.7146V35.9H73.7189V40.8819H73.2013V42.0905H79V40.3065H77.9302L77.8608 40.8819H75.2601V38.9952H77.4126V37.7983H75.2601V35.9H77.8608L77.9302 36.487H79V34.7146H73.2013Z" fill="black"/>
<path d="M23.7611 47.7535V47.2154C23.7611 47.2154 23.4349 46.6593 22.5975 46.6593C21.9258 46.6593 21.5161 47.0266 21.5161 47.593C21.5161 47.9333 21.6818 48.1632 22.0594 48.343L22.9379 48.7669C23.0663 48.8311 23.0984 48.8953 23.0984 48.9737C23.0984 49.0931 22.97 49.1804 22.7491 49.1804C22.3676 49.1804 22.1608 49.0058 22.0632 48.8812L22.0401 48.6513H21.5161V49.1856C21.5161 49.1856 21.8526 49.7378 22.7311 49.7378C23.4529 49.7378 23.9178 49.3833 23.9178 48.817C23.9178 48.4946 23.7662 48.2467 23.4259 48.0849L22.5012 47.6431C22.3856 47.5789 22.3394 47.5147 22.3394 47.4325C22.3394 47.2899 22.4498 47.2244 22.6155 47.2244C22.8775 47.2244 23.0766 47.3349 23.205 47.4453L23.232 47.7535H23.7611Z" fill="black"/>
<path d="M27.8525 46.7235V47.3631H28.0593V47.8781H26.9689V47.3631H27.1757V46.7274L25.9337 46.7235V47.3631H26.1405V49.0379H25.9337V49.6775H27.1757V49.0379H26.9689V48.5177H28.0593V49.0379H27.8525V49.6775H29.0944V49.0379H28.8877V47.3631H29.0944V46.7274L27.8525 46.7235Z" fill="black"/>
<path d="M32.776 47.2989C33.3373 47.2989 33.5299 47.7035 33.5299 48.2005C33.5299 48.6975 33.3373 49.1021 32.776 49.1021C32.2096 49.1021 32.0118 48.6975 32.0118 48.2005C32.0118 47.7035 32.2096 47.2989 32.776 47.2989ZM32.776 46.6593C31.7036 46.6593 31.1886 47.349 31.1886 48.2005C31.1886 49.052 31.7036 49.7378 32.776 49.7378C33.8484 49.7378 34.3583 49.052 34.3583 48.2005C34.3583 47.349 33.8484 46.6593 32.776 46.6593Z" fill="black"/>
<path d="M37.6571 49.6775V49.0379H37.4876V48.6693H38.2556C38.7578 48.6693 39.1533 48.3058 39.1533 47.6945C39.1533 47.0819 38.7578 46.7274 38.2556 46.7274H36.4524V47.3632H36.6592V49.0379H36.4524V49.6775H37.6571ZM37.4876 48.0349V47.3632H38.0116C38.2055 47.3632 38.3249 47.5057 38.3249 47.6945C38.3249 47.8872 38.1965 48.0349 38.0116 48.0349H37.4876Z" fill="black"/>
<path d="M42.3504 49.6775V49.0379H42.1809V48.6693H42.9489C43.4511 48.6693 43.8467 48.3058 43.8467 47.6945C43.8467 47.0819 43.4511 46.7274 42.9489 46.7274H41.1458V47.3632H41.3525V49.0379H41.1458V49.6775H42.3504ZM42.1809 48.0349V47.3632H42.7049C42.8989 47.3632 43.0183 47.5057 43.0183 47.6945C43.0183 47.8872 42.8899 48.0349 42.7049 48.0349H42.1809Z" fill="black"/>
<path d="M45.8392 46.7235V47.3631H46.046V49.0379H45.8392V49.6775H47.0812V49.0379H46.8744V47.3631H47.0812V46.7274L45.8392 46.7235Z" fill="black"/>
<path d="M51.223 48.3289L49.9438 46.7274L49.0974 46.7235V47.3631H49.3042V49.0379H49.0974V49.6775H50.3394V49.0379H50.1326V48.072L51.4118 49.6775H52.0514V47.3631H52.2581V46.7274L51.0162 46.7235V47.3631H51.223V48.3289Z" fill="black"/>
<path d="M57.2279 49.1483V48.0489H55.8935V48.6461H56.3996V49.0289C56.2891 49.0751 56.1645 49.1021 56.013 49.1021C55.4466 49.1021 55.1807 48.6975 55.1807 48.2005C55.1807 47.7035 55.4517 47.2989 56.0181 47.2989C56.2249 47.2989 56.3944 47.3451 56.528 47.4093L56.6256 47.837H57.2279V47.2565C57.2279 47.2565 56.8555 46.6593 55.9436 46.6593C54.8674 46.6593 54.3562 47.349 54.3562 48.2005C54.3562 49.052 54.8674 49.7378 55.9436 49.7378C56.8593 49.7378 57.2279 49.1483 57.2279 49.1483Z" fill="black"/>
</svg>
